<?xml version="1.0" encoding="utf-8"?>
<!-- Generator: Adobe Illustrator 27.2.0, SVG Export Plug-In . SVG Version: 6.00 Build 0)  -->
<svg version="1.1" id="Layer_1" xmlns="http://www.w3.org/2000/svg" xmlns:xlink="http://www.w3.org/1999/xlink" x="0px" y="0px"
	 viewBox="0 0 202 87" style="enable-background:new 0 0 202 87;" xml:space="preserve">
<style type="text/css">
	.st0{fill:#FFFFFF;}
</style>
<g>
	<path class="st0" d="M19.4,58.8H4v-1.7h0.5c0.8,0,1.5,0,2-0.1c0.4,0,0.8-0.2,1-0.3c0.2-0.2,0.3-0.4,0.4-0.8C8,55.4,8,54.8,8,53.9
		V12.1c0-0.9,0-1.5-0.1-2C7.8,9.7,7.7,9.4,7.5,9.2c-0.2-0.2-0.6-0.3-1-0.3c-0.5,0-1.2-0.1-2-0.1H4V7.1h15.4v1.7h-0.5
		c-0.8,0-1.5,0-2,0.1c-0.4,0-0.8,0.1-1,0.3s-0.3,0.4-0.4,0.8c-0.1,0.5-0.1,1.1-0.1,2v41.8c0,0.9,0,1.5,0.1,2
		c0.1,0.4,0.2,0.7,0.4,0.8c0.2,0.2,0.6,0.3,1,0.3c0.5,0,1.2,0.1,2,0.1h0.5V58.8z"/>
	<path class="st0" d="M43.7,58.8H24.2v-1.7h0.5c0.8,0,1.4,0,1.9-0.1c0.4,0,0.8-0.2,1-0.3c0.2-0.2,0.4-0.4,0.5-0.8
		c0.1-0.5,0.2-1.1,0.2-2V12.1c0-0.9-0.1-1.5-0.2-2c-0.1-0.4-0.3-0.7-0.5-0.8c-0.3-0.2-0.6-0.3-1.1-0.3s-1.2-0.1-1.9-0.1h-0.5V7.1h18
		c2.2,0,4.4,0.2,6.6,0.6c2.2,0.4,4.2,1.1,5.9,2.1s3.2,2.4,4.2,4.2c1.1,1.8,1.6,4,1.6,6.7c0,3.4-0.9,6-2.8,7.8
		c-1.4,1.4-3.4,2.5-5.7,3.2c1,0.3,2,0.6,2.9,1.1c1.5,0.7,2.8,1.6,4,2.7c1.1,1.1,2.1,2.4,2.7,3.8c0.7,1.5,1,3.2,1,5
		c0,2.7-0.6,5-1.7,6.9c-1.1,1.8-2.6,3.3-4.4,4.5c-1.8,1.1-3.8,1.9-6.1,2.4C48.3,58.4,46,58.8,43.7,58.8 M35.5,52.9
		c0.2,0.4,0.5,0.6,0.9,0.8c0.4,0.2,0.9,0.4,1.5,0.4c0.6,0.1,1.2,0.1,1.7,0.1h1.6c1.7,0,3.3-0.1,5-0.4c1.6-0.3,3.1-0.8,4.4-1.6
		c1.3-0.8,2.3-1.8,3.1-3c0.8-1.2,1.2-2.9,1.2-4.8c0-2.2-0.5-4-1.4-5.3c-1-1.3-2.2-2.4-3.7-3.1c-1.5-0.7-3.3-1.2-5.2-1.5
		c-1.9-0.2-3.8-0.4-5.7-0.4h-3.4V52.9z M35.6,29.6h6.7c1.5,0,3-0.2,4.3-0.5s2.5-0.8,3.5-1.5s1.8-1.6,2.3-2.7
		c0.6-1.1,0.9-2.5,0.9-4.2s-0.3-3.1-1-4.3s-1.6-2.1-2.7-2.8c-1.1-0.7-2.4-1.2-3.8-1.5c-1.5-0.3-3-0.4-4.5-0.4c-0.4,0-0.9,0-1.5,0
		s-1.2,0-1.7,0c-0.6,0-1.1,0.1-1.6,0.3c-0.4,0.1-0.7,0.3-0.9,0.5C35.6,12.5,35.6,29.6,35.6,29.6z"/>
	<path class="st0" d="M101.1,58.8H66.2v-1.7h0.5c1.8,0,2.4-0.3,2.6-0.5s0.5-0.8,0.5-2.7V12.1c0-1.9-0.3-2.5-0.5-2.7
		c-0.1-0.1-0.7-0.5-2.6-0.5h-0.5V7.2h34.3l0.1,8.6h-1.9l-0.1-0.4c-0.2-1.7-0.7-2.8-1.5-3.1c-0.9-0.4-2.1-0.6-3.8-0.6H78.1
		c-0.8,0-1.1,0.1-1.1,0.1s-0.1,0.3-0.1,1.2v16.7h14.7c0.8,0,1.5,0,2-0.1s0.9-0.2,1.3-0.4c0.3-0.2,0.5-0.5,0.7-0.9
		c0.2-0.5,0.3-1.1,0.4-1.9V26h1.8v12.1H96v-0.4c-0.1-0.9-0.2-1.5-0.4-2c-0.2-0.4-0.4-0.7-0.7-1c-0.3-0.2-0.7-0.4-1.2-0.4
		c-0.6-0.1-1.2-0.1-2.1-0.1H77v19.1c0,0.5,0.2,0.6,0.2,0.7c0.2,0.2,0.4,0.3,0.7,0.3c0.3,0,0.7,0.1,1.1,0c0.4,0,0.8,0,1.1,0h12.4
		c1.2,0,2.2-0.1,3-0.2s1.6-0.4,2.2-0.7c0.6-0.4,1.2-0.9,1.7-1.5s1-1.5,1.5-2.6l0.1-0.3h2.1L101.1,58.8z"/>
	<path class="st0" d="M147.2,58.8h-9.1l-0.1-0.3c-1.2-2.6-2.4-5-3.6-7.1c-1.2-2.1-2.5-4.1-3.9-5.9s-2.9-3.6-4.5-5.3
		s-3.4-3.4-5.5-5.2l-4.7,0.1v18.8c0,0.8,0,1.5,0.1,1.9s0.2,0.7,0.4,0.9c0.2,0.2,0.5,0.3,0.8,0.3c0.5,0,1.1,0.1,1.9,0.1h0.5v1.7H105
		v-1.7h0.5c0.7,0,1.3,0,1.8-0.1c0.4-0.1,0.7-0.2,0.8-0.4c0.2-0.2,0.3-0.5,0.4-0.8c0.1-0.4,0.1-1.1,0.1-1.9V12.1c0-0.8,0-1.4-0.1-1.9
		c-0.1-0.4-0.2-0.7-0.4-0.9c-0.2-0.2-0.5-0.3-0.8-0.4c-0.4-0.1-1-0.1-1.8-0.1H105V7.1h18.3c2.2,0,4.4,0.2,6.4,0.7
		c2.1,0.5,3.9,1.3,5.5,2.3c1.6,1.1,2.9,2.5,3.8,4.3c1,1.8,1.4,3.9,1.4,6.5c0,2-0.4,3.7-1.1,5.2c-0.7,1.5-1.7,2.7-3,3.7
		c-1.2,1-2.7,1.8-4.2,2.4c-1.3,0.5-2.6,0.9-4,1.1c1.1,0.9,2,1.8,2.8,2.4c0.9,0.9,1.7,1.7,2.4,2.5s1.3,1.6,2,2.4
		c0.6,0.8,1.4,1.8,2.3,2.9c1,1.3,2,2.7,2.9,4.3c0.9,1.6,1.7,3,2.5,4.4s1.5,2.5,2.1,3.4c0.5,0.8,1.1,1.2,1.5,1.2h0.5v2H147.2z
		 M115.8,30.6h3.1c1.8,0,3.5-0.2,5.2-0.5s3.2-0.9,4.5-1.7s2.4-1.8,3.2-3.2c0.8-1.3,1.2-3,1.2-5c0-1.8-0.3-3.2-1-4.3s-1.5-2-2.6-2.6
		s-2.4-1.1-3.8-1.3c-1.5-0.2-3-0.4-4.5-0.4h-1.5c-0.5,0-1,0-1.5,0.1c-0.5,0-1,0.2-1.4,0.3s-0.6,0.3-0.9,0.6V30.6z"/>
	<path class="st0" d="M168.8,59.7c-3.9,0-7.4-0.7-10.4-2.1s-5.5-3.3-7.6-5.7c-2.1-2.4-3.6-5.3-4.7-8.5c-1-3.2-1.6-6.7-1.6-10.3
		c0-4.5,0.7-8.4,2.1-11.8c1.4-3.3,3.2-6.2,5.5-8.4c2.3-2.3,4.9-4,7.8-5.1c2.8-1.1,5.7-1.6,8.6-1.6h0.2c3,0,6,0.6,8.8,1.7
		c2.9,1.1,5.5,2.8,7.8,5s4.1,5.1,5.5,8.4c1.4,3.4,2.1,7.3,2.1,11.7c0,3.6-0.5,7.1-1.6,10.3c-1.1,3.2-2.6,6.1-4.7,8.5
		c-2.1,2.4-4.6,4.4-7.6,5.8C176.1,58.9,172.7,59.7,168.8,59.7 M168.8,10.7c-3,0-5.6,0.7-7.7,2c-2.1,1.4-3.8,3.1-5.1,5.2
		c-1.3,2.1-2.3,4.6-2.9,7.2c-0.6,2.6-0.9,5.3-0.9,7.9c0,2.6,0.3,5.3,0.9,7.9c0.6,2.7,1.5,5.1,2.9,7.2c1.3,2.1,3,3.8,5.1,5.2
		c2.1,1.3,4.6,2,7.7,2c3,0,5.6-0.7,7.6-2c2.1-1.3,3.8-3.1,5.1-5.2s2.3-4.6,2.9-7.2c0.6-2.6,0.9-5.3,0.9-7.9c0-2.5-0.3-5.2-0.9-7.9
		c-0.6-2.7-1.6-5.1-2.9-7.2c-1.3-2.1-3-3.9-5.1-5.2C174.4,11.2,171.8,10.7,168.8,10.7"/>
	<path class="st0" d="M15.9,78.3c-0.5,0.3-1.6,0.5-3,0.5c-3.3,0-5.7-2.1-5.7-5.9c0-3.6,2.4-6.1,6-6.1c1.4,0,2.3,0.3,2.7,0.5
		l-0.4,1.2C15,68.2,14.1,68,13.2,68c-2.7,0-4.5,1.7-4.5,4.8c0,2.8,1.6,4.6,4.4,4.6c0.9,0,1.8-0.2,2.4-0.5L15.9,78.3z"/>
	<rect x="17.8" y="67.1" class="st0" width="1.5" height="11.5"/>
	<path class="st0" d="M23.4,67.1v6.9c0,2.6,1.1,3.7,2.7,3.7c1.7,0,2.8-1.1,2.8-3.7v-6.9h1.5v6.7c0,3.5-1.9,5-4.4,5
		c-2.4,0-4.1-1.3-4.1-4.9v-6.8H23.4z"/>
	<path class="st0" d="M32.9,67.3c0.9-0.2,2-0.3,3.2-0.3c2.1,0,3.7,0.5,4.7,1.4s1.6,2.3,1.6,4.1c0,1.9-0.6,3.4-1.7,4.5
		c-1.1,1.1-2.9,1.7-5.1,1.7c-1.1,0-2-0.1-2.7-0.1V67.3z M34.4,77.4c0.4,0,0.9,0.1,1.5,0.1c3.2,0,4.9-1.8,4.9-4.9
		c0-2.7-1.5-4.5-4.7-4.5c-0.8,0-1.4,0.1-1.7,0.2V77.4z"/>
	<path class="st0" d="M46,74.9l-1.2,3.6h-1.5l3.9-11.5H49l3.9,11.5h-1.6l-1.2-3.6H46z M49.8,73.8l-1.1-3.3c-0.3-0.8-0.4-1.4-0.6-2.1
		l0,0c-0.2,0.7-0.3,1.4-0.6,2.1l-1.1,3.3H49.8z"/>
	<path class="st0" d="M54.6,67.3c0.9-0.2,2-0.3,3.2-0.3c2.1,0,3.7,0.5,4.7,1.4s1.6,2.3,1.6,4.1c0,1.9-0.6,3.4-1.7,4.5
		s-2.9,1.7-5.1,1.7c-1.1,0-1.9-0.1-2.7-0.1V67.3z M56.1,77.4c0.4,0,0.9,0.1,1.5,0.1c3.2,0,4.9-1.8,4.9-4.9c0-2.7-1.5-4.5-4.7-4.5
		c-0.8,0-1.4,0.1-1.7,0.2C56.1,68.4,56.1,77.4,56.1,77.4z"/>
	<path class="st0" d="M69.6,67.3c0.9-0.2,2-0.3,3.2-0.3c2.1,0,3.7,0.5,4.7,1.4s1.6,2.3,1.6,4.1c0,1.9-0.6,3.4-1.7,4.5
		s-2.9,1.7-5.1,1.7c-1.1,0-2-0.1-2.7-0.1V67.3z M71.1,77.4c0.4,0,0.9,0.1,1.5,0.1c3.2,0,4.9-1.8,4.9-4.9c0-2.7-1.5-4.5-4.7-4.5
		c-0.8,0-1.3,0.1-1.7,0.2C71.1,68.4,71.1,77.4,71.1,77.4z"/>
	<polygon class="st0" points="87,73.2 82.5,73.2 82.5,77.3 87.5,77.3 87.5,78.7 81,78.7 81,67.1 87.3,67.1 87.3,68.3 82.5,68.3 
		82.5,71.9 87,71.9 	"/>
	<path class="st0" d="M102.8,73.6c-0.1-1.6-0.2-3.6-0.2-5l0,0c-0.4,1.3-0.9,2.8-1.5,4.4l-2,5.6H98l-1.9-5.5c-0.5-1.6-1-3.1-1.3-4.5
		l0,0c0,1.4-0.1,3.4-0.2,5.1l-0.3,5h-1.4l0.8-11.5h1.9l2,5.6c0.5,1.4,0.9,2.7,1.2,3.9l0,0c0.3-1.2,0.7-2.4,1.2-3.9l2.1-5.6h1.9
		l0.7,11.5h-1.5L102.8,73.6z"/>
	<path class="st0" d="M112.8,73.2h-4.5v4.2h5v1.2h-6.5V67.1h6.3v1.2h-4.7v3.6h4.5v1.3H112.8z M112.5,64.4l-2.2,2h-1.2l1.6-2H112.5z"
		/>
	<path class="st0" d="M121.6,78.7l-1.5-2.6c-0.6-1-1-1.6-1.3-2.3l0,0c-0.3,0.7-0.7,1.3-1.3,2.3l-1.4,2.5h-1.7l3.5-5.8l-3.4-5.7h1.7
		l1.5,2.7c0.4,0.8,0.8,1.3,1.1,1.9l0,0c0.3-0.7,0.6-1.2,1-1.9l1.6-2.7h1.7l-3.5,5.6l3.6,5.9h-1.6V78.7z"/>
	<rect x="125" y="67.1" class="st0" width="1.5" height="11.5"/>
	<path class="st0" d="M137.2,78.3c-0.5,0.3-1.6,0.5-3.1,0.5c-3.2,0-5.7-2.1-5.7-5.9c0-3.6,2.4-6.1,6-6.1c1.4,0,2.3,0.3,2.7,0.5
		l-0.4,1.2c-0.5-0.3-1.4-0.5-2.3-0.5c-2.7,0-4.5,1.7-4.5,4.8c0,2.8,1.6,4.6,4.4,4.6c0.9,0,1.8-0.2,2.4-0.5L137.2,78.3z"/>
	<path class="st0" d="M148.6,72.8c0,4-2.4,6.1-5.4,6.1c-3.1,0-5.2-2.4-5.2-5.9c0-3.7,2.3-6.1,5.3-6.1
		C146.6,66.8,148.6,69.3,148.6,72.8 M139.6,72.8c0,2.5,1.3,4.7,3.7,4.7s3.7-2.2,3.7-4.8c0-2.3-1.2-4.7-3.7-4.7
		S139.6,70.3,139.6,72.8"/>
</g>
</svg>
