<?xml version="1.0" encoding="utf-8"?>
<!-- Generator: Adobe Illustrator 27.2.0, SVG Export Plug-In . SVG Version: 6.00 Build 0)  -->
<svg version="1.1" id="Layer_1" xmlns="http://www.w3.org/2000/svg" xmlns:xlink="http://www.w3.org/1999/xlink" x="0px" y="0px"
	 viewBox="0 0 1341.7 306" style="enable-background:new 0 0 1341.7 306;" xml:space="preserve">
<style type="text/css">
	.st0{fill:#FFFFFF;}
	.st1{fill:none;stroke:#FDFEFF;stroke-width:5;stroke-linecap:round;stroke-linejoin:round;stroke-miterlimit:10;}
	.st2{fill:#D2A22A;}
	.st3{fill:none;stroke:#FDFEFF;stroke-width:5;stroke-linecap:round;stroke-miterlimit:10;}
</style>
<g>
	<g>
		<g>
			<path class="st0" d="M183.9,18.8c-33.7-20.3-77.5-9.5-97.8,24.2c-0.3,0.6-0.7,1.1-1,1.7c-6.5-7.2-15.9-11.7-26.4-11.7
				c-19.7,0-35.6,16-35.6,35.6c0,9.5,3.7,18.1,9.8,24.5C16.5,102.3,5.3,119.8,5.3,140c0,29.5,23.9,53.4,53.4,53.4
				s52.4-22.9,53.4-51.5c33.5,18.9,76.1,7.8,96-25.3C228.5,82.9,217.6,39.1,183.9,18.8L183.9,18.8z M41,68.7c0-9.8,8-17.8,17.8-17.8
				s17.8,8,17.8,17.8s-8,17.8-17.8,17.8S41,78.5,41,68.7z M58.8,175.6c-19.6,0-35.6-16-35.6-35.6s16-35.6,35.6-35.6
				s35.6,16,35.6,35.6S78.4,175.6,58.8,175.6z M192.9,107.4c-15.2,25.2-48.1,33.4-73.4,18.2s-33.4-48.1-18.2-73.4
				c15.2-25.2,48.1-33.4,73.4-18.2S208.1,82.2,192.9,107.4z"/>
			<g>
				<path class="st0" d="M32.9,272.7H17.5V271H18c0.8,0,1.5,0,2-0.1c0.4,0,0.8-0.2,1-0.3c0.2-0.2,0.3-0.4,0.4-0.8
					c0.1-0.5,0.1-1.1,0.1-2V226c0-0.9,0-1.5-0.1-2c-0.1-0.4-0.2-0.7-0.4-0.8c-0.2-0.2-0.6-0.3-1-0.3c-0.5,0-1.2-0.1-2-0.1h-0.5v-1.7
					h15.4v1.7h-0.5c-0.8,0-1.5,0-2,0.1c-0.4,0-0.8,0.1-1,0.3c-0.2,0.2-0.3,0.4-0.4,0.8c-0.1,0.5-0.1,1.1-0.1,2v41.8
					c0,0.9,0,1.5,0.1,2c0.1,0.4,0.2,0.7,0.4,0.8c0.2,0.2,0.6,0.3,1,0.3c0.5,0,1.2,0.1,2,0.1h0.5V272.7z"/>
				<path class="st0" d="M57.2,272.7H37.7V271h0.5c0.8,0,1.4,0,1.9-0.1c0.4,0,0.8-0.2,1-0.3c0.2-0.2,0.4-0.4,0.5-0.8
					c0.1-0.5,0.2-1.1,0.2-2V226c0-0.9-0.1-1.5-0.2-2c-0.1-0.4-0.3-0.7-0.5-0.8c-0.3-0.2-0.6-0.3-1.1-0.3c-0.5,0-1.2-0.1-1.9-0.1
					h-0.5v-1.7h18c2.2,0,4.4,0.2,6.6,0.6c2.2,0.4,4.2,1.1,5.9,2.1c1.7,1,3.2,2.4,4.2,4.2c1.1,1.8,1.6,4,1.6,6.7c0,3.4-0.9,6-2.8,7.8
					c-1.4,1.4-3.4,2.5-5.7,3.2c1,0.3,2,0.6,2.9,1.1c1.5,0.7,2.8,1.6,4,2.7c1.1,1.1,2.1,2.4,2.7,3.8c0.7,1.5,1,3.2,1,5
					c0,2.7-0.6,5-1.7,6.9c-1.1,1.8-2.6,3.3-4.4,4.5c-1.8,1.1-3.8,1.9-6.1,2.4C61.8,272.4,59.5,272.7,57.2,272.7 M49,266.9
					c0.2,0.4,0.5,0.6,0.9,0.8c0.4,0.2,0.9,0.4,1.5,0.4c0.6,0.1,1.2,0.1,1.7,0.1h1.6c1.7,0,3.3-0.1,5-0.4c1.6-0.3,3.1-0.8,4.4-1.6
					c1.3-0.8,2.3-1.8,3.1-3c0.8-1.2,1.2-2.9,1.2-4.8c0-2.2-0.5-4-1.4-5.3c-1-1.3-2.2-2.4-3.7-3.1c-1.5-0.7-3.3-1.2-5.2-1.5
					c-1.9-0.2-3.8-0.4-5.7-0.4H49V266.9z M49.1,243.5h6.7c1.5,0,3-0.2,4.3-0.5c1.3-0.3,2.5-0.8,3.5-1.5c1-0.7,1.8-1.6,2.3-2.7
					c0.6-1.1,0.9-2.5,0.9-4.2c0-1.7-0.3-3.1-1-4.3c-0.7-1.2-1.6-2.1-2.7-2.8c-1.1-0.7-2.4-1.2-3.8-1.5c-1.5-0.3-3-0.4-4.5-0.4
					c-0.4,0-0.9,0-1.5,0c-0.6,0-1.2,0-1.7,0c-0.6,0-1.1,0.1-1.6,0.3c-0.4,0.1-0.7,0.3-0.9,0.5V243.5z"/>
				<path class="st0" d="M114.6,272.7H79.7V271h0.5c1.8,0,2.4-0.3,2.6-0.5c0.2-0.2,0.5-0.8,0.5-2.7V226c0-1.9-0.3-2.5-0.5-2.7
					c-0.1-0.1-0.7-0.5-2.6-0.5h-0.5v-1.7h34.3l0.1,8.6h-1.9l-0.1-0.4c-0.2-1.7-0.7-2.8-1.5-3.1c-0.9-0.4-2.1-0.6-3.8-0.6H91.6
					c-0.8,0-1.1,0.1-1.1,0.1c0,0-0.1,0.3-0.1,1.2v16.7h14.7c0.8,0,1.5,0,2-0.1c0.5-0.1,0.9-0.2,1.3-0.4c0.3-0.2,0.5-0.5,0.7-0.9
					c0.2-0.5,0.3-1.1,0.4-1.9l0-0.4h1.8V252h-1.8l0-0.4c-0.1-0.9-0.2-1.5-0.4-2c-0.2-0.4-0.4-0.7-0.7-1c-0.3-0.2-0.7-0.4-1.2-0.4
					c-0.6-0.1-1.2-0.1-2.1-0.1H90.5v19.1c0,0.5,0.2,0.6,0.2,0.7c0.2,0.2,0.4,0.3,0.7,0.3c0.3,0,0.7,0.1,1.1,0c0.4,0,0.8,0,1.1,0H106
					c1.2,0,2.2-0.1,3-0.2c0.8-0.1,1.6-0.4,2.2-0.7c0.6-0.4,1.2-0.9,1.7-1.5c0.5-0.6,1-1.5,1.5-2.6l0.1-0.3h2.1L114.6,272.7z"/>
				<path class="st0" d="M160.7,272.7h-9.1l-0.1-0.3c-1.2-2.6-2.4-5-3.6-7.1c-1.2-2.1-2.5-4.1-3.9-5.9c-1.4-1.8-2.9-3.6-4.5-5.3
					c-1.6-1.7-3.4-3.4-5.5-5.2l-4.7,0.1v18.8c0,0.8,0,1.5,0.1,1.9c0.1,0.4,0.2,0.7,0.4,0.9c0.2,0.2,0.5,0.3,0.8,0.3
					c0.5,0,1.1,0.1,1.9,0.1h0.5v1.7h-14.5V271h0.5c0.7,0,1.3,0,1.8-0.1c0.4-0.1,0.7-0.2,0.8-0.4c0.2-0.2,0.3-0.5,0.4-0.8
					c0.1-0.4,0.1-1.1,0.1-1.9V226c0-0.8,0-1.4-0.1-1.9c-0.1-0.4-0.2-0.7-0.4-0.9c-0.2-0.2-0.5-0.3-0.8-0.4c-0.4-0.1-1-0.1-1.8-0.1
					h-0.5v-1.7h18.3c2.2,0,4.4,0.2,6.4,0.7c2.1,0.5,3.9,1.3,5.5,2.3c1.6,1.1,2.9,2.5,3.8,4.3c1,1.8,1.4,3.9,1.4,6.5
					c0,2-0.4,3.7-1.1,5.2c-0.7,1.5-1.7,2.7-3,3.7c-1.2,1-2.7,1.8-4.2,2.4c-1.3,0.5-2.6,0.9-4,1.1c1.1,0.9,2,1.8,2.8,2.4
					c0.9,0.9,1.7,1.7,2.4,2.5c0.7,0.8,1.3,1.6,2,2.4c0.6,0.8,1.4,1.8,2.3,2.9c1,1.3,2,2.7,2.9,4.3c0.9,1.6,1.7,3,2.5,4.4
					c0.8,1.4,1.5,2.5,2.1,3.4c0.5,0.8,1.1,1.2,1.5,1.2h0.5V272.7z M129.3,244.5h3.1c1.8,0,3.5-0.2,5.2-0.5c1.7-0.3,3.2-0.9,4.5-1.7
					c1.3-0.8,2.4-1.8,3.2-3.2c0.8-1.3,1.2-3,1.2-5c0-1.8-0.3-3.2-1-4.3c-0.7-1.1-1.5-2-2.6-2.6c-1.1-0.6-2.4-1.1-3.8-1.3
					c-1.5-0.2-3-0.4-4.5-0.4h-1.5c-0.5,0-1,0-1.5,0.1c-0.5,0-1,0.2-1.4,0.3c-0.4,0.1-0.6,0.3-0.9,0.6V244.5z"/>
				<path class="st0" d="M182.3,273.6c-3.9,0-7.4-0.7-10.4-2.1c-3-1.4-5.5-3.3-7.6-5.7c-2.1-2.4-3.6-5.3-4.7-8.5
					c-1-3.2-1.6-6.7-1.6-10.3c0-4.5,0.7-8.4,2.1-11.8c1.4-3.3,3.2-6.2,5.5-8.4c2.3-2.3,4.9-4,7.8-5.1c2.8-1.1,5.7-1.6,8.6-1.6l0.2,0
					c3,0,6,0.6,8.8,1.7c2.9,1.1,5.5,2.8,7.8,5c2.3,2.2,4.1,5.1,5.5,8.4c1.4,3.4,2.1,7.3,2.1,11.7c0,3.6-0.5,7.1-1.6,10.3
					c-1.1,3.2-2.6,6.1-4.7,8.5c-2.1,2.4-4.6,4.4-7.6,5.8C189.6,272.9,186.2,273.6,182.3,273.6 M182.3,224.6c-3,0-5.6,0.7-7.7,2
					c-2.1,1.4-3.8,3.1-5.1,5.2c-1.3,2.1-2.3,4.6-2.9,7.2c-0.6,2.6-0.9,5.3-0.9,7.9c0,2.6,0.3,5.3,0.9,7.9c0.6,2.7,1.5,5.1,2.9,7.2
					c1.3,2.1,3,3.8,5.1,5.2c2.1,1.3,4.6,2,7.7,2c3,0,5.6-0.7,7.6-2c2.1-1.3,3.8-3.1,5.1-5.2c1.3-2.1,2.3-4.6,2.9-7.2
					c0.6-2.6,0.9-5.3,0.9-7.9c0-2.5-0.3-5.2-0.9-7.9c-0.6-2.7-1.6-5.1-2.9-7.2c-1.3-2.1-3-3.9-5.1-5.2
					C187.9,225.2,185.3,224.6,182.3,224.6"/>
				<path class="st0" d="M29.4,292.2c-0.5,0.3-1.6,0.5-3,0.5c-3.3,0-5.7-2.1-5.7-5.9c0-3.6,2.4-6.1,6-6.1c1.4,0,2.3,0.3,2.7,0.5
					l-0.4,1.2c-0.5-0.3-1.4-0.5-2.3-0.5c-2.7,0-4.5,1.7-4.5,4.8c0,2.8,1.6,4.6,4.4,4.6c0.9,0,1.8-0.2,2.4-0.5L29.4,292.2z"/>
				<rect x="31.3" y="281" class="st0" width="1.5" height="11.5"/>
				<path class="st0" d="M36.9,281v6.9c0,2.6,1.1,3.7,2.7,3.7c1.7,0,2.8-1.1,2.8-3.7V281h1.5v6.7c0,3.5-1.9,5-4.4,5
					c-2.4,0-4.1-1.3-4.1-4.9V281H36.9z"/>
				<path class="st0" d="M46.4,281.2c0.9-0.2,2-0.3,3.2-0.3c2.1,0,3.7,0.5,4.7,1.4c1,0.9,1.6,2.3,1.6,4.1c0,1.9-0.6,3.4-1.7,4.5
					c-1.1,1.1-2.9,1.7-5.1,1.7c-1.1,0-2-0.1-2.7-0.1V281.2z M47.9,291.4c0.4,0,0.9,0.1,1.5,0.1c3.2,0,4.9-1.8,4.9-4.9
					c0-2.7-1.5-4.5-4.7-4.5c-0.8,0-1.4,0.1-1.7,0.2V291.4z"/>
				<path class="st0" d="M59.5,288.9l-1.2,3.6h-1.5l3.9-11.5h1.8l3.9,11.5h-1.6l-1.2-3.6H59.5z M63.3,287.8l-1.1-3.3
					c-0.3-0.8-0.4-1.4-0.6-2.1h0c-0.2,0.7-0.3,1.4-0.6,2.1l-1.1,3.3H63.3z"/>
				<path class="st0" d="M68.1,281.2c0.9-0.2,2-0.3,3.2-0.3c2.1,0,3.7,0.5,4.7,1.4c1,0.9,1.6,2.3,1.6,4.1c0,1.9-0.6,3.4-1.7,4.5
					c-1.1,1.1-2.9,1.7-5.1,1.7c-1.1,0-1.9-0.1-2.7-0.1V281.2z M69.6,291.4c0.4,0,0.9,0.1,1.5,0.1c3.2,0,4.9-1.8,4.9-4.9
					c0-2.7-1.5-4.5-4.7-4.5c-0.8,0-1.4,0.1-1.7,0.2V291.4z"/>
				<path class="st0" d="M83.1,281.2c0.9-0.2,2-0.3,3.2-0.3c2.1,0,3.7,0.5,4.7,1.4c1,0.9,1.6,2.3,1.6,4.1c0,1.9-0.6,3.4-1.7,4.5
					c-1.1,1.1-2.9,1.7-5.1,1.7c-1.1,0-2-0.1-2.7-0.1V281.2z M84.6,291.4c0.4,0,0.9,0.1,1.5,0.1c3.2,0,4.9-1.8,4.9-4.9
					c0-2.7-1.5-4.5-4.7-4.5c-0.8,0-1.3,0.1-1.7,0.2V291.4z"/>
				<polygon class="st0" points="100.5,287.1 96,287.1 96,291.3 101,291.3 101,292.6 94.5,292.6 94.5,281 100.8,281 100.8,282.3 
					96,282.3 96,285.9 100.5,285.9 				"/>
				<path class="st0" d="M116.3,287.5c-0.1-1.6-0.2-3.6-0.2-5h0c-0.4,1.3-0.9,2.8-1.5,4.4l-2,5.6h-1.1l-1.9-5.5
					c-0.5-1.6-1-3.1-1.3-4.5h0c0,1.4-0.1,3.4-0.2,5.1l-0.3,5h-1.4l0.8-11.5h1.9l2,5.6c0.5,1.4,0.9,2.7,1.2,3.9h0
					c0.3-1.2,0.7-2.4,1.2-3.9l2.1-5.6h1.9l0.7,11.5h-1.5L116.3,287.5z"/>
				<path class="st0" d="M126.3,287.1h-4.5v4.2h5v1.2h-6.5V281h6.3v1.2h-4.7v3.6h4.5V287.1z M126,278.4l-2.2,2h-1.2l1.6-2H126z"/>
				<path class="st0" d="M135.1,292.6l-1.5-2.6c-0.6-1-1-1.6-1.3-2.3h0c-0.3,0.7-0.7,1.3-1.3,2.3l-1.4,2.5h-1.7l3.5-5.8L128,281h1.7
					l1.5,2.7c0.4,0.8,0.8,1.3,1.1,1.9h0c0.3-0.7,0.6-1.2,1-1.9l1.6-2.7h1.7l-3.5,5.6l3.6,5.9H135.1z"/>
				<rect x="138.5" y="281" class="st0" width="1.5" height="11.5"/>
				<path class="st0" d="M150.7,292.2c-0.5,0.3-1.6,0.5-3.1,0.5c-3.2,0-5.7-2.1-5.7-5.9c0-3.6,2.4-6.1,6-6.1c1.4,0,2.3,0.3,2.7,0.5
					l-0.4,1.2c-0.5-0.3-1.4-0.5-2.3-0.5c-2.7,0-4.5,1.7-4.5,4.8c0,2.8,1.6,4.6,4.4,4.6c0.9,0,1.8-0.2,2.4-0.5L150.7,292.2z"/>
				<path class="st0" d="M162.1,286.7c0,4-2.4,6.1-5.4,6.1c-3.1,0-5.2-2.4-5.2-5.9c0-3.7,2.3-6.1,5.3-6.1
					C160.1,280.8,162.1,283.2,162.1,286.7 M153.1,286.8c0,2.5,1.3,4.7,3.7,4.7s3.7-2.2,3.7-4.8c0-2.3-1.2-4.7-3.7-4.7
					C154.3,282,153.1,284.3,153.1,286.8"/>
			</g>
		</g>
		<line class="st1" x1="281.4" y1="7.6" x2="281.4" y2="294"/>
		<g>
			<path class="st0" d="M398.2,146.1c-1.4-0.1-4-0.1-7.6-0.1l-7.8,0.1l0.6-1.1c0.7-1.2,1.1-3,1.3-5.3c0.2-2.3,0.3-7.9,0.3-16.9
				v-12.6l-0.1,0.4c-0.1,0.3-0.2,0.7-0.4,1.2s-0.3,1.1-0.5,1.7c-0.2,0.6-0.5,1.3-0.8,2.1c-0.3,0.8-0.7,1.6-1,2.4l-10.3,23.5
				l-10.4-23.5c-1.3-2.8-2.2-5.4-2.9-7.7v13.1c0,8.9,0.1,14.4,0.3,16.5c0.2,2,0.6,3.7,1.4,5.1l0.6,1.1c-1.4-0.1-3.4-0.1-6.1-0.1
				l-6.3,0.1l0.6-1.1c0.7-1.3,1.1-3.1,1.3-5.3c0.2-2.2,0.3-7.8,0.3-16.9c0-8.9-0.1-14.4-0.3-16.5c-0.2-2-0.6-3.7-1.4-5.1l-0.6-1.1
				c1.7,0.1,4.5,0.1,8.4,0.1l7.6-0.1l7.7,17.3c0.2,0.5,0.4,0.9,0.5,1.4c0.1,0.4,0.3,0.8,0.3,1l0.1,0.3c0-0.2,0.3-1.1,1-2.6l7.7-17.3
				c1.6,0.1,4.3,0.1,7.9,0.1l8.4-0.1l-0.6,1.1c-0.7,1.3-1.1,3-1.3,5.3c-0.2,2.2-0.3,7.9-0.3,17c0,8.9,0.1,14.4,0.3,16.5
				c0.2,2,0.6,3.7,1.4,5.1L398.2,146.1z"/>
			<path class="st0" d="M446.7,146.1c-2.3-0.1-5.1-0.1-8.6-0.1l-8.6,0.1c1.4-0.9,2.1-2.3,2.1-4.1c0-1.2-0.6-4.2-1.8-9l-0.7-2.7
				h-13.2l-0.7,2.7c-1.2,4.9-1.9,7.8-1.9,8.9c0,1.8,0.7,3.1,2.1,4.1c-2-0.1-4.5-0.1-7.4-0.1l-7,0.1c1.1-1.1,2.1-2.6,2.8-4.6
				c0.8-2,1.9-5.6,3.3-10.7l7.6-26.9c0.3-1,0.4-1.8,0.4-2.3c0-0.6-0.2-1-0.5-1.3h19.2l-0.1,0.2c-0.1,0.1-0.2,0.2-0.2,0.5
				c-0.1,0.2-0.1,0.5-0.1,0.7c0,0.7,0.1,1.5,0.3,2.4l7,26.9c1.3,5.1,2.4,8.6,3.1,10.6C444.6,143.5,445.6,145,446.7,146.1z
				 M427.5,123.8l-3.9-15.7c-0.6-2.1-0.9-3.7-1-4.7c-0.4,2.1-0.8,3.6-1,4.7l-3.9,15.7H427.5z"/>
			<path class="st0" d="M484,144.6c-2.7,1.2-6.8,1.9-12.3,1.9c-8,0-13.8-2-17.6-6c-3.7-4-5.6-9.5-5.6-16.6c0-8,2-14.1,6.1-18.1
				c4.1-4,9.9-6.1,17.5-6.1c2.5,0,4.8,0.2,6.8,0.5c2,0.3,3.3,0.6,4.1,0.9l1,0.5c-0.1,0.9-0.1,2.7-0.1,5.3l0.1,5.7
				c-1.5-2.2-3.1-3.8-4.6-4.8c-1.5-1-3.6-1.5-6.3-1.5c-4.1,0-7.3,1.6-9.4,4.7c-2.1,3.2-3.2,7.3-3.2,12.5c0,5.3,1,9.4,3.1,12.2
				c2.1,2.8,5.2,4.2,9.3,4.2c2.7,0,4.9-0.5,6.4-1.5c1.6-1,3.2-2.7,4.7-4.9c-0.1,1.4-0.1,3.4-0.1,6.1L484,144.6z"/>
			<path class="st0" d="M530,145.3c-0.7,0.8-2.8,1.2-6.3,1.2c-2.7,0-4.7-0.5-6.2-1.5c-1.5-1-3-2.9-4.5-5.6l-3.5-6.1
				c-1.8-3.3-3.1-5.2-3.6-5.7c-0.6-0.6-1.5-0.8-2.4-0.8l-1,0.1c0,7.3,0.1,11.8,0.3,13.6c0.2,1.8,0.6,3.3,1.3,4.6l0.6,1.1
				c-1.5-0.1-4.1-0.1-7.5-0.1l-7.6,0.1l0.6-1.1c0.7-1.2,1.1-3,1.3-5.2c0.2-2.2,0.3-7.9,0.3-17c0-8.9-0.1-14.4-0.3-16.5
				c-0.2-2-0.6-3.7-1.4-5.1l-0.6-1.1c1.7,0.1,3.7,0.1,6,0.1c0.7,0,2.3,0,4.7-0.1c2.4,0,4-0.1,4.6-0.1c1.8,0,3.2,0,4.4,0.1
				c1.1,0,2.5,0.1,4,0.3c1.5,0.2,2.8,0.4,3.8,0.7c1,0.3,2,0.8,3.1,1.4s2,1.3,2.6,2.1c0.6,0.8,1.1,1.8,1.5,3.1
				c0.4,1.2,0.6,2.7,0.6,4.3c0,3-0.7,5.4-2.1,7.4c-1.4,2-3,3.3-4.9,4c-1.8,0.7-3.9,1.1-6.1,1.2c2.3,0.3,4.1,1,5.4,2.2
				c1.3,1.2,2.7,3.1,4.1,5.8l3.5,6.9c0.9,1.8,1.8,3.1,2.5,3.9S528.9,144.8,530,145.3z M513.4,113.3c0-2.9-0.7-4.9-2.1-5.9
				c-1.4-1-3.5-1.5-6.3-1.5l-2.5,0.1v14.8c0.5,0.1,1.4,0.1,2.8,0.1c1.4,0,2.6-0.1,3.5-0.5C511.9,119.8,513.4,117.4,513.4,113.3z"/>
			<path class="st0" d="M574.4,122.5c0,3.3-0.4,6.3-1.2,9.1c-0.8,2.8-2,5.4-3.6,7.7c-1.6,2.3-3.9,4.2-6.7,5.5c-2.9,1.3-6.2,2-10,2
				c-7.1,0-12.5-2-16.2-6c-3.7-4-5.5-9.7-5.5-17c0-3.3,0.4-6.3,1.2-9.1c0.8-2.8,2-5.4,3.6-7.7c1.6-2.3,3.9-4.2,6.7-5.5
				c2.9-1.3,6.2-2,10-2c7.1,0,12.5,2,16.2,6C572.6,109.5,574.4,115.2,574.4,122.5z M562.3,123.1c0-5.9-0.8-10.2-2.3-12.9
				c-1.5-2.7-3.9-4-7.1-4c-3.3,0-5.7,1.4-7.2,4.1c-1.5,2.8-2.3,7.1-2.3,13c0,5.9,0.8,10.2,2.3,12.9c1.5,2.7,3.9,4,7.1,4
				c3.3,0,5.7-1.4,7.2-4.1C561.5,133.3,562.3,129,562.3,123.1z"/>
			<path class="st0" d="M629.9,144.6c-2.7,1.2-6.8,1.9-12.3,1.9c-8,0-13.8-2-17.6-6c-3.7-4-5.6-9.5-5.6-16.6c0-8,2-14.1,6.1-18.1
				c4.1-4,9.9-6.1,17.5-6.1c2.5,0,4.8,0.2,6.8,0.5c2,0.3,3.3,0.6,4.1,0.9l1,0.5c-0.1,0.9-0.1,2.7-0.1,5.3l0.1,5.7
				c-1.5-2.2-3.1-3.8-4.6-4.8c-1.5-1-3.6-1.5-6.3-1.5c-4.1,0-7.3,1.6-9.4,4.7c-2.1,3.2-3.2,7.3-3.2,12.5c0,5.3,1,9.4,3.1,12.2
				c2.1,2.8,5.2,4.2,9.3,4.2c2.7,0,4.9-0.5,6.4-1.5c1.6-1,3.2-2.7,4.7-4.9c-0.1,1.4-0.1,3.4-0.1,6.1L629.9,144.6z"/>
			<path class="st0" d="M664.6,134.1c-0.2,1.7-0.5,4.9-0.7,9.4l-0.1,2.4h-23.5l-5,0.1l0.6-1.1c0.7-1.3,1.1-3,1.3-5.3
				c0.2-2.2,0.3-7.9,0.3-17c0-8.9-0.1-14.4-0.3-16.5c-0.2-2-0.6-3.7-1.4-5.1l-0.6-1.1c1.5,0.1,4.2,0.1,8.1,0.1l7.8-0.1l-0.6,1.2
				c-0.7,1.3-1.2,2.9-1.4,4.9c-0.2,2-0.3,6.5-0.3,13.5v19.9h4.3c1.9,0,3.5-0.1,4.7-0.3c1.2-0.2,2.3-0.6,3.1-1.2
				c0.9-0.6,1.5-1.1,1.8-1.5C663.2,136.1,663.8,135.3,664.6,134.1z"/>
			<path class="st0" d="M711.1,146.1c-2.3-0.1-5.1-0.1-8.6-0.1l-8.6,0.1c1.4-0.9,2.1-2.3,2.1-4.1c0-1.2-0.6-4.2-1.8-9l-0.7-2.7
				h-13.2l-0.7,2.7c-1.2,4.9-1.9,7.8-1.9,8.9c0,1.8,0.7,3.1,2.1,4.1c-2-0.1-4.5-0.1-7.4-0.1l-7,0.1c1.1-1.1,2.1-2.6,2.8-4.6
				c0.8-2,1.9-5.6,3.3-10.7l7.6-26.9c0.3-1,0.4-1.8,0.4-2.3c0-0.6-0.2-1-0.5-1.3h19.2l-0.1,0.2c-0.1,0.1-0.2,0.2-0.2,0.5
				c-0.1,0.2-0.1,0.5-0.1,0.7c0,0.7,0.1,1.5,0.3,2.4l7,26.9c1.3,5.1,2.4,8.6,3.1,10.6C709.1,143.5,710,145,711.1,146.1z
				 M691.9,123.8l-3.9-15.7c-0.6-2.1-0.9-3.7-1-4.7c-0.4,2.1-0.8,3.6-1,4.7l-3.9,15.7H691.9z"/>
			<path class="st0" d="M755.8,100.1l-0.6,1.1c-0.7,1.2-1.1,2.8-1.3,4.8c-0.2,2-0.3,6.7-0.3,14.1v5.1c0,4.3-0.2,7.6-0.6,9.9
				c-0.4,2.3-1.3,4.3-2.8,5.9c-3.1,3.8-8.2,5.7-15.3,5.7c-7.4,0-12.6-1.7-15.6-5c-1.5-1.6-2.5-3.5-3.1-5.7c-0.6-2.1-0.8-5.1-0.8-8.8
				v-5.4c0-8.3-0.1-13.5-0.3-15.5c-0.2-2.1-0.6-3.8-1.4-5.2l-0.6-1.1c1.7,0.1,4.3,0.1,7.9,0.1l8-0.1l-0.6,1.1
				c-0.7,1.2-1.1,2.8-1.3,4.8c-0.2,2-0.3,6.7-0.3,14.1v9c0,2.5,0.1,4.3,0.4,5.3c1,3.6,3.7,5.3,8.1,5.3c4.5,0,7.3-1.8,8.2-5.3
				c0.3-1.1,0.4-2.8,0.4-5.2v-6.5c0-8.9-0.1-14.4-0.3-16.5c-0.2-2-0.6-3.7-1.4-5.1l-0.6-1.1c1.5,0.1,3.9,0.1,7,0.1L755.8,100.1z"/>
			<path class="st0" d="M791.2,132.9c0,2.6-0.4,4.8-1.3,6.6c-0.9,1.8-2.1,3.2-3.8,4.2c-1.6,1-3.5,1.7-5.5,2.1
				c-2,0.4-4.3,0.6-6.9,0.6c-2.4,0-4.7-0.2-6.8-0.5s-3.5-0.7-4.4-1l-1.2-0.5c0.1-1,0.1-2.7,0.1-5l-0.1-6.3c1.4,2,2.9,3.5,4.7,4.7
				c1.8,1.2,4.1,1.7,6.9,1.7c5.2,0,7.8-1.7,7.8-5.1c0-1.5-0.4-2.6-1.2-3.4c-0.8-0.8-2.1-1.7-4-2.7l-5.3-3c-2.9-1.6-5.1-3.4-6.7-5.3
				c-1.6-2-2.4-4.5-2.4-7.5c0-8.7,5.5-13,16.5-13c2.3,0,4.4,0.2,6.3,0.5c1.9,0.3,3.3,0.6,4.1,0.9l1.2,0.5c-0.1,1-0.1,2.8-0.1,5.2
				l0.1,5.9c-2.9-4.2-6.6-6.3-10.9-6.3c-4.6,0-6.9,1.5-6.9,4.6c0,0.7,0.1,1.4,0.3,1.9c0.2,0.5,0.6,1.1,1.3,1.6
				c0.7,0.5,1.2,0.9,1.6,1.1c0.4,0.2,1.2,0.7,2.4,1.4l4.6,2.6c3.2,1.7,5.5,3.5,7.1,5.4C790.4,127,791.2,129.6,791.2,132.9z"/>
			<path class="st0" d="M839.1,100.1l-0.6,1.1c-0.7,1.2-1.1,2.8-1.3,4.8c-0.2,2-0.3,6.7-0.3,14.1v5.1c0,4.3-0.2,7.6-0.6,9.9
				c-0.4,2.3-1.3,4.3-2.8,5.9c-3.1,3.8-8.2,5.7-15.3,5.7c-7.4,0-12.6-1.7-15.6-5c-1.5-1.6-2.5-3.5-3.1-5.7c-0.6-2.1-0.8-5.1-0.8-8.8
				v-5.4c0-8.3-0.1-13.5-0.3-15.5c-0.2-2.1-0.6-3.8-1.4-5.2l-0.6-1.1c1.7,0.1,4.3,0.1,7.9,0.1l8-0.1l-0.6,1.1
				c-0.7,1.2-1.1,2.8-1.3,4.8c-0.2,2-0.3,6.7-0.3,14.1v9c0,2.5,0.1,4.3,0.4,5.3c1,3.6,3.7,5.3,8.1,5.3c4.5,0,7.3-1.8,8.2-5.3
				c0.3-1.1,0.4-2.8,0.4-5.2v-6.5c0-8.9-0.1-14.4-0.3-16.5c-0.2-2-0.6-3.7-1.4-5.1l-0.6-1.1c1.5,0.1,3.9,0.1,7,0.1L839.1,100.1z"/>
			<path class="st0" d="M885.7,145.3c-0.7,0.8-2.8,1.2-6.3,1.2c-2.7,0-4.7-0.5-6.2-1.5c-1.5-1-3-2.9-4.5-5.6l-3.5-6.1
				c-1.8-3.3-3.1-5.2-3.6-5.7c-0.6-0.6-1.5-0.8-2.4-0.8l-1,0.1c0,7.3,0.1,11.8,0.3,13.6c0.2,1.8,0.6,3.3,1.3,4.6l0.6,1.1
				c-1.5-0.1-4.1-0.1-7.5-0.1l-7.6,0.1l0.6-1.1c0.7-1.2,1.1-3,1.3-5.2c0.2-2.2,0.3-7.9,0.3-17c0-8.9-0.1-14.4-0.3-16.5
				c-0.2-2-0.6-3.7-1.4-5.1l-0.6-1.1c1.7,0.1,3.7,0.1,6,0.1c0.7,0,2.3,0,4.7-0.1c2.4,0,4-0.1,4.6-0.1c1.8,0,3.2,0,4.4,0.1
				c1.1,0,2.5,0.1,4,0.3c1.5,0.2,2.8,0.4,3.8,0.7c1,0.3,2,0.8,3.1,1.4s2,1.3,2.6,2.1c0.6,0.8,1.1,1.8,1.5,3.1
				c0.4,1.2,0.6,2.7,0.6,4.3c0,3-0.7,5.4-2.1,7.4c-1.4,2-3,3.3-4.9,4c-1.8,0.7-3.9,1.1-6.1,1.2c2.3,0.3,4.1,1,5.4,2.2
				c1.3,1.2,2.7,3.1,4.1,5.8l3.5,6.9c0.9,1.8,1.8,3.1,2.5,3.9S884.6,144.8,885.7,145.3z M869.1,113.3c0-2.9-0.7-4.9-2.1-5.9
				c-1.4-1-3.5-1.5-6.3-1.5l-2.5,0.1v14.8c0.5,0.1,1.4,0.1,2.8,0.1c1.4,0,2.6-0.1,3.5-0.5C867.5,119.8,869.1,117.4,869.1,113.3z"/>
			<path class="st0" d="M929.5,146.1c-2.3-0.1-5.1-0.1-8.6-0.1l-8.6,0.1c1.4-0.9,2.1-2.3,2.1-4.1c0-1.2-0.6-4.2-1.8-9l-0.7-2.7
				h-13.2l-0.7,2.7c-1.2,4.9-1.9,7.8-1.9,8.9c0,1.8,0.7,3.1,2.1,4.1c-2-0.1-4.5-0.1-7.4-0.1l-7,0.1c1.1-1.1,2.1-2.6,2.8-4.6
				c0.8-2,1.9-5.6,3.3-10.7l7.6-26.9c0.3-1,0.4-1.8,0.4-2.3c0-0.6-0.2-1-0.5-1.3h19.2l-0.1,0.2c-0.1,0.1-0.2,0.2-0.2,0.5
				c-0.1,0.2-0.1,0.5-0.1,0.7c0,0.7,0.1,1.5,0.3,2.4l7,26.9c1.3,5.1,2.4,8.6,3.1,10.6C927.4,143.5,928.3,145,929.5,146.1z
				 M910.3,123.8l-3.9-15.7c-0.6-2.1-0.9-3.7-1-4.7c-0.4,2.1-0.8,3.6-1,4.7l-3.9,15.7H910.3z"/>
			<path class="st0" d="M380.2,170.4c-0.9,0.8-1.6,2.1-2.2,3.7s-1.5,4.3-2.6,8.2l-7,23.8c-1.5-0.1-3.5-0.1-6-0.1l-6.2,0.1l-6.9-23.8
				c-1.1-3.9-2-6.6-2.6-8.2c-0.6-1.6-1.4-2.8-2.2-3.7c1.2,0.1,3.5,0.1,6.7,0.1l7.2-0.1c-1.1,0.7-1.7,1.8-1.7,3.1
				c0,0.9,0.6,3.7,1.9,8.3l4.5,17.1c0.1,0.4,0.1,0.9,0.2,1.3c0.1,0.5,0.1,0.9,0.2,1.3l0.1,0.6c0-0.3,0.2-1.3,0.5-3l4.5-17.2
				c1.2-4.6,1.7-7.4,1.7-8.4c0-1.4-0.5-2.4-1.6-3.2c1.3,0.1,3.3,0.1,6,0.1L380.2,170.4z"/>
			<path class="st0" d="M394.3,206.1c-1.2-0.1-3.2-0.1-6-0.1l-6.1,0.1l0.5-0.8c0.5-1,0.9-2.4,1-4.1c0.1-1.7,0.2-6.1,0.2-13.1
				c0-6.9-0.1-11.2-0.2-12.8c-0.1-1.6-0.5-2.9-1-4l-0.5-0.9c1.1,0.1,3.2,0.1,6.1,0.1l6.1-0.1l-0.5,0.9c-0.5,1-0.9,2.4-1,4.1
				c-0.2,1.7-0.2,6.1-0.2,13.2c0,6.9,0.1,11.2,0.2,12.8c0.1,1.6,0.5,2.9,1,4L394.3,206.1z"/>
			<path class="st0" d="M430.9,205.5c-0.6,0.6-2.2,0.9-4.9,0.9c-2.1,0-3.7-0.4-4.8-1.1c-1.1-0.8-2.3-2.2-3.5-4.4l-2.7-4.7
				c-1.4-2.6-2.4-4-2.8-4.4c-0.5-0.4-1.1-0.7-1.9-0.7l-0.8,0c0,5.7,0.1,9.2,0.2,10.6c0.2,1.4,0.5,2.6,1,3.6l0.4,0.8
				c-1.2-0.1-3.1-0.1-5.8-0.1l-5.9,0.1l0.5-0.8c0.5-1,0.9-2.3,1-4c0.1-1.7,0.2-6.1,0.2-13.2c0-6.9-0.1-11.2-0.2-12.8
				c-0.1-1.6-0.5-2.9-1-4l-0.5-0.9c1.3,0.1,2.9,0.1,4.7,0.1c0.6,0,1.8,0,3.7,0c1.9,0,3.1-0.1,3.6-0.1c1.4,0,2.5,0,3.4,0.1
				c0.9,0,1.9,0.1,3.1,0.2c1.2,0.1,2.2,0.3,3,0.5c0.8,0.2,1.6,0.6,2.4,1c0.8,0.5,1.5,1,2,1.6c0.5,0.6,0.9,1.4,1.2,2.4
				c0.3,1,0.5,2.1,0.5,3.3c0,2.3-0.5,4.2-1.6,5.7s-2.3,2.6-3.8,3.1c-1.4,0.6-3,0.9-4.8,0.9c1.8,0.2,3.2,0.8,4.2,1.7
				c1,0.9,2.1,2.4,3.2,4.5l2.8,5.4c0.7,1.4,1.4,2.4,1.9,3S430.1,205.1,430.9,205.5z M418.1,180.7c0-2.3-0.5-3.8-1.6-4.6
				c-1.1-0.8-2.7-1.2-4.9-1.2l-1.9,0.1v11.5c0.4,0.1,1.1,0.1,2.1,0.1c1.1,0,2-0.1,2.8-0.3C416.9,185.6,418.1,183.8,418.1,180.7z"/>
			<path class="st0" d="M458.9,174c0,0.5,0,1,0,1.4s0,0.8,0,1.1s0,0.6,0.1,0.8c0,0.2,0,0.4,0,0.5v0.2c-0.6-0.6-1.1-1-1.8-1.4
				c-1.4-0.8-3.2-1.2-5.5-1.2h-2.7v13.1c0,6.9,0.1,11.2,0.2,12.8c0.1,1.6,0.5,2.9,1.1,4l0.4,0.8c-1.2-0.1-3.2-0.1-6-0.1l-6.1,0.1
				l0.5-0.8c0.5-1,0.9-2.4,1-4.1c0.2-1.7,0.2-6.1,0.2-13.1v-12.6h-2.7c-2.2,0-4,0.4-5.5,1.2c-1,0.6-1.6,1.1-1.8,1.4v-0.2
				c0-0.1,0-0.3,0-0.5c0-0.2,0-0.5,0-0.8c0-0.3,0-0.7,0-1.1s0-0.9,0-1.4l0-3.5h28.5C458.9,171.1,458.9,172.3,458.9,174z"/>
			<path class="st0" d="M494.7,170.4l-0.5,0.9c-0.5,1-0.9,2.2-1,3.7c-0.1,1.5-0.2,5.2-0.2,11v3.9c0,3.4-0.2,5.9-0.5,7.7
				c-0.3,1.8-1,3.3-2.2,4.6c-2.4,2.9-6.4,4.4-11.8,4.4c-5.7,0-9.8-1.3-12.1-3.8c-1.2-1.3-2-2.7-2.4-4.4c-0.4-1.7-0.7-4-0.7-6.8v-4.2
				c0-6.4-0.1-10.5-0.2-12c-0.1-1.6-0.5-2.9-1.1-4l-0.4-0.9c1.3,0.1,3.3,0.1,6.1,0.1l6.2-0.1l-0.5,0.9c-0.5,1-0.9,2.2-1,3.7
				c-0.2,1.5-0.2,5.2-0.2,11v7c0,2,0.1,3.3,0.3,4.1c0.8,2.8,2.9,4.2,6.3,4.2c3.5,0,5.6-1.4,6.4-4.2c0.2-0.8,0.3-2.2,0.3-4v-5
				c0-6.9-0.1-11.2-0.2-12.8c-0.1-1.6-0.5-2.9-1.1-4l-0.4-0.9c1.2,0.1,3,0.1,5.4,0.1L494.7,170.4z"/>
			<path class="st0" d="M531.3,206.1c-1.8-0.1-4-0.1-6.6-0.1l-6.6,0.1c1.1-0.7,1.6-1.8,1.6-3.1c0-1-0.5-3.3-1.4-7l-0.5-2.1h-10.3
				l-0.5,2.1c-1,3.8-1.4,6.1-1.4,6.9c0,1.4,0.5,2.4,1.6,3.2c-1.5-0.1-3.5-0.1-5.7-0.1l-5.4,0.1c0.9-0.8,1.6-2,2.2-3.6
				c0.6-1.6,1.4-4.3,2.6-8.3l5.9-20.8c0.2-0.8,0.3-1.4,0.3-1.8c0-0.5-0.1-0.8-0.4-1h14.9l0,0.1c-0.1,0.1-0.1,0.2-0.2,0.4
				c-0.1,0.2-0.1,0.3-0.1,0.5c0,0.6,0.1,1.2,0.3,1.9l5.5,20.8c1,3.9,1.8,6.7,2.4,8.2C529.7,204,530.4,205.2,531.3,206.1z
				 M516.4,188.8l-3.1-12.2c-0.4-1.6-0.7-2.8-0.8-3.6c-0.3,1.6-0.6,2.8-0.8,3.6l-3,12.2H516.4z"/>
			<path class="st0" d="M556.6,196.8c-0.2,1.3-0.3,3.8-0.5,7.3l-0.1,1.9h-18.2l-3.9,0l0.5-0.8c0.5-1,0.9-2.4,1-4.1
				c0.1-1.7,0.2-6.1,0.2-13.2c0-6.9-0.1-11.2-0.2-12.8c-0.1-1.6-0.5-2.9-1-4l-0.5-0.9c1.1,0.1,3.2,0.1,6.3,0.1l6-0.1l-0.5,0.9
				c-0.6,1-0.9,2.3-1.1,3.8c-0.2,1.5-0.2,5-0.2,10.5V201h3.4c1.5,0,2.7-0.1,3.7-0.2c1-0.1,1.8-0.4,2.4-0.9c0.7-0.5,1.1-0.9,1.4-1.2
				C555.5,198.3,555.9,197.7,556.6,196.8z"/>
			<path class="st0" d="M602.7,187.4c0,2.5-0.3,4.8-0.8,6.8s-1.2,3.6-2,4.9s-1.8,2.4-3,3.3c-1.2,0.9-2.4,1.6-3.5,2.1
				c-1.1,0.4-2.3,0.8-3.8,1s-2.6,0.4-3.5,0.5c-0.9,0-1.9,0.1-3.1,0.1c-0.7,0-1.8,0-3.1-0.1c-1.3-0.1-2.3-0.1-2.9-0.1l-4.1,0.1
				l0.5-0.8c0.5-1,0.9-2.4,1-4.1c0.1-1.7,0.2-6.1,0.2-13.2c0-6.9-0.1-11.2-0.2-12.8c-0.1-1.6-0.5-2.9-1-4l-0.5-0.9
				c0.9,0.1,2.3,0.1,4.1,0.1c0.7,0,1.8,0,3.3-0.1c1.6,0,2.7-0.1,3.5-0.1C596.4,170.3,602.7,176,602.7,187.4z M597.3,188
				c0-2.5-0.3-4.6-0.8-6.4c-0.6-1.8-1.2-3.2-2.1-4.2c-0.8-1-1.9-1.8-3.2-2.4c-1.3-0.6-2.6-1-3.8-1.2c-1.2-0.2-2.6-0.3-4.2-0.3
				l-3.5,0.1v29.2c1.1,0.1,2.2,0.2,3.3,0.2c1.5,0,2.9-0.1,4.1-0.2c1.2-0.1,2.4-0.5,3.8-1.1c1.4-0.6,2.5-1.4,3.4-2.4
				c0.9-1,1.6-2.5,2.2-4.4S597.3,190.6,597.3,188z"/>
			<path class="st0" d="M631,198.7c-0.2,1.2-0.4,3.1-0.5,5.8l-0.1,1.5h-17.1l-3.9,0l0.5-0.8c0.5-1,0.9-2.4,1-4.1
				c0.1-1.7,0.2-6.1,0.2-13.1c0-6.9-0.1-11.2-0.2-12.8c-0.1-1.6-0.5-2.9-1-4l-0.5-0.9c0.7,0,2,0.1,3.8,0.1h16.7c0,0.5,0,1.4,0,2.6
				c0,0.4,0,0.7,0,1.1c0,0.3,0,0.6,0,0.8c0,0.2,0,0.4,0,0.6c0,0.2,0,0.3,0.1,0.4v0.1c-0.4-0.4-1-0.9-1.8-1.3
				c-1.3-0.7-3.1-1.1-5.5-1.1H616v13h5.4c2.6,0,4.4-0.3,5.5-1c0.8-0.5,1.4-0.9,1.8-1.3v0.2c0,0.1-0.1,0.3-0.1,0.5c0,0.2,0,0.5,0,0.8
				s0,0.7,0,1.1c0,0.4,0,0.9,0,1.3c0,0.4,0,0.9,0,1.3c0,0.4,0,0.8,0,1.1s0,0.5,0,0.8c0,0.2,0,0.4,0.1,0.5v0.2
				c-0.4-0.4-1-0.9-1.8-1.3c-1.1-0.6-2.9-1-5.5-1H616v13h6.1c1.5,0,2.7-0.1,3.7-0.2c0.9-0.1,1.8-0.4,2.4-0.9
				c0.7-0.5,1.1-0.9,1.4-1.2C629.9,200.2,630.3,199.6,631,198.7z"/>
			<path class="st0" d="M678.9,187.4c0,2.5-0.3,4.8-0.8,6.8s-1.2,3.6-2,4.9s-1.8,2.4-3,3.3c-1.2,0.9-2.4,1.6-3.5,2.1
				c-1.1,0.4-2.3,0.8-3.8,1s-2.6,0.4-3.5,0.5c-0.9,0-1.9,0.1-3.1,0.1c-0.7,0-1.8,0-3.1-0.1c-1.3-0.1-2.3-0.1-2.9-0.1l-4.1,0.1
				l0.5-0.8c0.5-1,0.9-2.4,1-4.1c0.1-1.7,0.2-6.1,0.2-13.2c0-6.9-0.1-11.2-0.2-12.8c-0.1-1.6-0.5-2.9-1-4l-0.5-0.9
				c0.9,0.1,2.3,0.1,4.1,0.1c0.7,0,1.8,0,3.3-0.1c1.6,0,2.7-0.1,3.5-0.1C672.6,170.3,678.9,176,678.9,187.4z M673.4,188
				c0-2.5-0.3-4.6-0.8-6.4c-0.6-1.8-1.2-3.2-2.1-4.2c-0.8-1-1.9-1.8-3.2-2.4c-1.3-0.6-2.6-1-3.8-1.2c-1.2-0.2-2.6-0.3-4.2-0.3
				l-3.5,0.1v29.2c1.1,0.1,2.2,0.2,3.3,0.2c1.5,0,2.9-0.1,4.1-0.2c1.2-0.1,2.4-0.5,3.8-1.1c1.4-0.6,2.5-1.4,3.4-2.4
				c0.9-1,1.6-2.5,2.2-4.4S673.4,190.6,673.4,188z"/>
			<path class="st0" d="M693.8,206.1c-0.8-0.1-2.2-0.1-4.2-0.1l-4.2,0.1l0.5-0.8c0.5-1,0.9-2.4,1-4.1c0.1-1.7,0.2-6.1,0.2-13.1
				c0-6.9-0.1-11.2-0.2-12.8c-0.1-1.6-0.5-2.9-1-4l-0.5-0.9c0.8,0.1,2.2,0.1,4.2,0.1l4.2-0.1l-0.5,0.9c-0.5,1-0.9,2.4-1,4.1
				c-0.1,1.7-0.2,6.1-0.2,13.2c0,6.9,0.1,11.2,0.2,12.8c0.1,1.6,0.5,2.9,1,4L693.8,206.1z"/>
			<path class="st0" d="M724.3,180.8c0,7.3-4.3,11-12.9,11l-3.3-0.2c0,5.2,0.1,8.5,0.2,10c0.2,1.4,0.5,2.7,1,3.7l0.5,0.8
				c-0.8-0.1-2.2-0.1-4.2-0.1l-4.2,0.1l0.5-0.8c0.5-1,0.9-2.4,1-4.1c0.1-1.7,0.2-6.1,0.2-13.2c0-6.9-0.1-11.2-0.2-12.8
				c-0.1-1.6-0.5-2.9-1-4l-0.5-0.9c0.9,0.1,2,0.1,3.4,0.1c0.8,0,1.8,0,3.2,0c1.4,0,2.3-0.1,2.7-0.1c1.2,0,2.3,0,3.2,0.1
				c0.9,0.1,2.1,0.3,3.5,0.7c1.4,0.4,2.5,0.9,3.4,1.6c0.9,0.7,1.7,1.7,2.4,3.1C723.9,177.2,724.3,178.9,724.3,180.8z M718.9,180.7
				c0-4.9-2.7-7.4-8.2-7.4l-2.6,0.1v15.1c0.5,0.1,1.5,0.2,3,0.2c1.4,0,2.7-0.2,3.7-0.6c1-0.4,1.8-0.9,2.3-1.4s0.9-1.2,1.2-2
				c0.3-0.8,0.5-1.5,0.5-2.1C718.8,182.1,718.9,181.5,718.9,180.7z"/>
			<path class="st0" d="M749.3,198.7c-0.2,1.2-0.3,3.1-0.5,5.8l-0.1,1.5h-14.9l-3.9,0l0.5-0.8c0.5-1,0.9-2.4,1-4.1
				c0.1-1.7,0.2-6.1,0.2-13.1c0-6.9-0.1-11.2-0.2-12.8c-0.1-1.6-0.5-2.9-1-4l-0.5-0.9c0.8,0.1,2.2,0.1,4.2,0.1l4.2-0.1l-0.5,0.9
				c-0.5,1-0.9,2.4-1,4c-0.1,1.7-0.2,5.9-0.2,12.8v14.8h3.9c1.5,0,2.7-0.1,3.7-0.2c1-0.1,1.8-0.4,2.4-0.9c0.7-0.5,1.1-0.9,1.4-1.2
				C748.2,200.2,748.6,199.6,749.3,198.7z"/>
			<path class="st0" d="M785.2,187.6c0,0.8,0,1.7-0.1,2.5c-0.1,0.8-0.2,1.9-0.5,3.2s-0.6,2.6-1,3.7c-0.4,1.1-1,2.3-1.8,3.5
				s-1.7,2.3-2.8,3.1c-1.1,0.9-2.5,1.6-4.1,2.2c-1.7,0.6-3.6,0.8-5.6,0.8c-5,0-8.9-1.6-11.7-4.8c-2.8-3.2-4.2-7.4-4.2-12.8
				c0-0.8,0-1.6,0.1-2.5c0-0.8,0.2-1.9,0.5-3.2s0.6-2.6,1-3.7c0.4-1.1,1-2.3,1.8-3.5c0.8-1.2,1.7-2.3,2.8-3.2
				c1.1-0.9,2.5-1.6,4.2-2.2c1.7-0.6,3.6-0.8,5.6-0.8c5,0,8.9,1.6,11.7,4.8S785.2,182.2,785.2,187.6z M779.7,188.1
				c0-5.2-1-9-2.9-11.3s-4.4-3.5-7.5-3.5c-3,0-5.5,1.2-7.4,3.6c-2,2.4-2.9,6.2-2.9,11.6c0,5.2,1,9,2.9,11.3s4.4,3.5,7.5,3.5
				c3,0,5.5-1.2,7.5-3.6C778.7,197.3,779.7,193.4,779.7,188.1z"/>
			<path class="st0" d="M825.7,206.1c-0.7-0.1-2-0.1-4-0.1l-4.2,0.1l0.4-0.8c0.6-1,0.9-2.4,1.1-4c0.1-1.7,0.2-6.1,0.2-13.2v-15
				c-0.2,1.1-0.6,2.3-1.2,3.6l-9.8,23.3l-9.6-23.1c-0.5-1.1-0.9-2.3-1.3-3.7v15.4c0,7,0.1,11.3,0.2,12.8c0.1,1.5,0.5,2.9,1,3.9
				l0.5,0.8c-0.8-0.1-2-0.1-3.7-0.1l-3.5,0.1l0.5-0.8c0.5-1,0.9-2.4,1-4.1c0.1-1.7,0.2-6.1,0.2-13.2c0-7-0.1-11.3-0.2-12.8
				c-0.1-1.5-0.5-2.9-1-3.9l-0.5-0.9c1.3,0.1,2.9,0.1,4.8,0.1l4.2-0.2l7.3,17.9c0.1,0.3,0.2,0.6,0.4,0.9c0.1,0.3,0.2,0.5,0.2,0.6
				c0,0.1,0.1,0.2,0,0.2c0-0.2,0.2-0.8,0.6-1.7l7.5-17.8c1.2,0.1,2.7,0.1,4.3,0.1l4.4-0.2l-0.5,0.9c-0.5,1-0.9,2.4-1,4.1
				c-0.1,1.7-0.2,6.1-0.2,13.2c0,6.9,0.1,11.2,0.2,12.8c0.1,1.6,0.5,2.9,1,4L825.7,206.1z"/>
			<path class="st0" d="M861,206.1c-1.2-0.1-2.9-0.1-4.9-0.1l-4.8,0.1c1.1-0.7,1.6-1.8,1.6-3.1c0-1-0.7-3.8-2-8.3l-0.9-3.2H839
				l-0.9,3.1c-1.3,4.5-1.9,7.2-1.9,8.4c0,1.3,0.5,2.4,1.6,3.2c-1.2-0.1-2.6-0.1-4.4-0.1l-4.2,0.1c0.8-0.8,1.5-1.9,2-3.3
				s1.4-3.8,2.4-7.1c0.1-0.2,0.1-0.3,0.1-0.5s0.1-0.3,0.1-0.5c0.1-0.2,0.1-0.3,0.2-0.5l6.5-20.9c0.3-0.8,0.4-1.4,0.4-1.9
				c0-0.5-0.1-0.8-0.3-1.1h9.4l-0.1,0.1c0,0.1-0.1,0.2-0.1,0.4c0,0.2-0.1,0.3-0.1,0.5c0,0.5,0.1,1.1,0.3,1.8l6.2,20.9
				c0.8,2.8,1.4,4.8,1.8,5.9s0.8,2.3,1.3,3.4C859.9,204.6,860.4,205.5,861,206.1z M849.2,188.1l-3.5-12.2c-0.2-0.5-0.3-1.1-0.5-1.7
				c-0.2-0.6-0.3-1.1-0.4-1.4c-0.1-0.3-0.2-0.5-0.2-0.6l-1.1,3.7l-3.6,12.2H849.2z"/>
			<path class="st0" d="M894.6,187.4c0,2.5-0.3,4.8-0.8,6.8s-1.2,3.6-2,4.9s-1.8,2.4-3,3.3c-1.2,0.9-2.4,1.6-3.5,2.1
				c-1.1,0.4-2.3,0.8-3.8,1s-2.6,0.4-3.5,0.5c-0.9,0-1.9,0.1-3.1,0.1c-0.7,0-1.8,0-3.1-0.1c-1.3-0.1-2.3-0.1-2.9-0.1l-4.1,0.1
				l0.5-0.8c0.5-1,0.9-2.4,1-4.1c0.1-1.7,0.2-6.1,0.2-13.2c0-6.9-0.1-11.2-0.2-12.8c-0.1-1.6-0.5-2.9-1-4l-0.5-0.9
				c0.9,0.1,2.3,0.1,4.1,0.1c0.7,0,1.8,0,3.3-0.1c1.6,0,2.7-0.1,3.5-0.1C888.3,170.3,894.6,176,894.6,187.4z M889.1,188
				c0-2.5-0.3-4.6-0.8-6.4c-0.6-1.8-1.2-3.2-2.1-4.2c-0.8-1-1.9-1.8-3.2-2.4c-1.3-0.6-2.6-1-3.8-1.2c-1.2-0.2-2.6-0.3-4.2-0.3
				l-3.5,0.1v29.2c1.1,0.1,2.2,0.2,3.3,0.2c1.5,0,2.9-0.1,4.1-0.2c1.2-0.1,2.4-0.5,3.8-1.1c1.4-0.6,2.5-1.4,3.4-2.4
				c0.9-1,1.6-2.5,2.2-4.4S889.1,190.6,889.1,188z"/>
			<path class="st0" d="M932,187.6c0,0.8,0,1.7-0.1,2.5c-0.1,0.8-0.2,1.9-0.5,3.2s-0.6,2.6-1,3.7c-0.4,1.1-1,2.3-1.8,3.5
				s-1.7,2.3-2.8,3.1c-1.1,0.9-2.5,1.6-4.1,2.2c-1.7,0.6-3.6,0.8-5.6,0.8c-5,0-8.9-1.6-11.7-4.8c-2.8-3.2-4.2-7.4-4.2-12.8
				c0-0.8,0-1.6,0.1-2.5c0-0.8,0.2-1.9,0.5-3.2s0.6-2.6,1-3.7c0.4-1.1,1-2.3,1.8-3.5c0.8-1.2,1.7-2.3,2.8-3.2
				c1.1-0.9,2.5-1.6,4.2-2.2c1.7-0.6,3.6-0.8,5.6-0.8c5,0,8.9,1.6,11.7,4.8S932,182.2,932,187.6z M926.5,188.1c0-5.2-1-9-2.9-11.3
				s-4.4-3.5-7.5-3.5c-3,0-5.5,1.2-7.4,3.6c-2,2.4-2.9,6.2-2.9,11.6c0,5.2,1,9,2.9,11.3s4.4,3.5,7.5,3.5c3,0,5.5-1.2,7.5-3.6
				C925.6,197.3,926.5,193.4,926.5,188.1z"/>
			<path class="st0" d="M958.5,197c0,6.2-4,9.3-12,9.3c-1.7,0-3.3-0.1-4.8-0.4c-1.5-0.2-2.5-0.5-3.1-0.8l-0.9-0.4
				c0.1-0.8,0.1-1.8,0.1-3l-0.1-3.8c1.2,1.7,2.4,3,3.7,3.8c1.2,0.8,2.9,1.2,5,1.2c4.8,0,7.2-1.8,7.2-5.3c0-1.4-0.3-2.5-0.9-3.4
				c-0.6-0.9-1.6-1.7-2.9-2.6l-4.5-2.9c-1.1-0.7-1.8-1.2-2.1-1.4c-0.3-0.2-0.9-0.7-1.8-1.4c-0.9-0.7-1.5-1.4-1.8-2
				c-0.4-0.6-0.7-1.3-1-2.2c-0.3-0.9-0.5-1.9-0.5-3c0-2.6,0.9-4.7,2.8-6.3c1.8-1.7,4.7-2.5,8.5-2.5c1.5,0,2.9,0.1,4.2,0.4
				s2.3,0.5,2.9,0.7l0.9,0.3c-0.1,0.8-0.1,1.8-0.1,3.2l0.1,3.5c-1.2-1.7-2.3-2.9-3.5-3.7c-1.2-0.8-2.7-1.2-4.6-1.2
				c-4.2,0-6.4,1.6-6.4,4.9c0,0.7,0.1,1.4,0.3,1.9c0.2,0.6,0.6,1.1,1.1,1.6s1,0.9,1.4,1.2s1.1,0.7,2,1.3l3.5,2.4
				c2.5,1.6,4.2,2.9,5,3.7C957.7,192.2,958.5,194.4,958.5,197z"/>
		</g>
	</g>
	<polygon class="st2" points="1309.8,207 1017.5,205.2 1018.6,97.6 1341.7,97.6 1341.7,163.7 	"/>
	<g>
		<path class="st0" d="M1058,180.2c0.6,5.1,5.7,5,7.3,2.3c0.4-1.1,1-2.9,1.6-5.3c2-8,2.6-23.9,5.4-26c2.1-1.5,6.1,4.4,7.3,5.7
			c1.1,1.2,4,6.4,8.1,5.5c0.9-0.2,2.9-1.9,4.6-4.1c1.9-2.4,6-7.2,8.2-8.1c1.8-0.7,4.4-1.4,7.8,1.6c1.3,1.2,5.4,3.8,5.4,10.2
			c0.1,6.4-1.3,11.7,0.6,17.9c1,3.2,4.1,4.2,6.1,1.8c1.5-2.7,1.2-6.2,1.5-10.3c0.3-4.3,1.3-9.7,3.4-13.4c1.7-3,6.6-6.8,8.3-8.1
			c1.7-1.3,5.7-2.1,7.9-2c3.2,0.1,6.7,0,7.3,3.5c0.7,4.3-0.2,9.6-0.3,14c-0.1,3.6-0.4,8.3-0.5,11.9c-0.1,2.8,1.7,6.8,5.4,4.5
			c2.1-1.3,2.4-9.9,2.4-12.1c0.2-4.9,0.7-10.1,1-14.9c0.1-1.6-0.2-5.6,1-7c1.7-1.9,8-1,10-0.7c9.1,1.6,6.6-8-2.6-8.6
			c-7.6-0.5-15.4-0.8-23.1-0.2c-3,0.3-8.3,1.2-13.3,5.4c-3.5,2.9-6,8.8-11,7.4c-1.5-0.4-1.7-0.9-2.7-1.9c-0.8-0.8-3.8-5-6-6.5
			c-2-1.3-3-1.7-5.5-1.6c-2.7,0.1-6.5,3.3-8.6,5c-1.5,1.2-5.5,5.2-8.3,5.4c-2.9,0.2-5.1-2.6-5.7-3.3c-1.4-1.5-5.5-6.7-7.2-7.6
			c-3.6-1.9-6.7-0.1-7.9,2.6C1060.3,156.5,1057.8,177.6,1058,180.2"/>
		<path class="st0" d="M1161.6,120.3c0.7,1.3,0.8,3.3,0.3,4.7c-0.7,2.3-3.8,5.2-7.2,4.8c-1.3-0.1-4-0.5-5.8-3.2
			c-0.4-0.6-0.9-2.4-0.9-3.3c0-2,0.9-3.3,2.1-4.8c1.1-1.4,2.5-2,4.5-2.1c0.8-0.1,2,0.1,2.8,0.4
			C1158.1,117,1160.6,118.4,1161.6,120.3"/>
		<path class="st0" d="M1114.7,135.2c-0.9-1.2-1.3-3.1-1.1-4.7c0.4-2.4,3.1-6.1,6.5-6.4c1.3-0.1,4.2,0.2,6.2,1.9
			c0.5,0.4,1.3,1.8,1.5,2.4c0.6,1.9-0.2,4.5-1.2,6.1c-0.9,1.6-2.6,2.7-4.5,3.2c-0.8,0.2-2,0.3-2.8,0.2
			C1118.7,137.8,1116,136.9,1114.7,135.2"/>
		<path class="st0" d="M1078.8,121.3c1,1.3,1.3,3.3,1,4.9c-0.4,2.5-3.3,6.4-6.9,6.7c-1.3,0.1-4.3-0.2-6.4-2
			c-0.5-0.5-1.4-1.8-1.6-2.5c-0.6-2,0.3-4.7,1.3-6.4c0.9-1.6,2.7-2.8,4.7-3.3c0.8-0.2,2.1-0.3,2.9-0.2
			C1074.7,118.6,1077.4,119.5,1078.8,121.3"/>
		<path class="st0" d="M1197.9,151.1l-0.8-5.6l-0.3-2.4c-0.1,0.3-0.2,0.6-0.2,0.8c-0.1,0.3-0.2,0.6-0.3,1l-2.1,6.2h-1.9l-1.9-5.8
			c-0.1-0.4-0.3-0.7-0.4-1.2c-0.1-0.4-0.2-0.8-0.3-1.1c0,0.4,0,0.8-0.1,1.2c-0.1,0.5-0.1,0.9-0.2,1.3l-0.7,5.5h-1.8l1.5-10.1h2.2
			l2.1,6.1c0.1,0.4,0.2,0.7,0.3,1c0.1,0.3,0.2,0.6,0.2,0.9c0.1-0.4,0.2-0.7,0.2-0.9c0-0.2,0.2-0.5,0.3-1l2.1-6.2h2.3l1.5,10.1
			H1197.9z"/>
		<path class="st0" d="M1207,151.3c-1.4,0-2.4-0.3-3.2-0.9c-0.7-0.6-1.1-1.5-1.1-2.7v-6.6h1.8v6.3c0,0.9,0.2,1.5,0.7,1.9
			c0.4,0.4,1.1,0.6,1.9,0.6c0.9,0,1.6-0.2,2-0.7c0.4-0.5,0.6-1.1,0.6-2v-6.1h1.7v6.2c0,1.2-0.4,2.1-1.1,2.9
			C1209.6,150.9,1208.5,151.3,1207,151.3"/>
		<path class="st0" d="M1216.5,151.3c-0.3,0-0.7,0-1.1-0.1c-0.4-0.1-0.8-0.1-1.1-0.2l0.1-1.6c0.6,0.3,1.4,0.4,2.3,0.4
			c0.6,0,1.1-0.1,1.5-0.4c0.4-0.3,0.6-0.7,0.6-1.2c0-0.6-0.8-1.1-2.4-1.7c-1.6-0.6-2.4-1.4-2.4-2.6c0-0.9,0.4-1.7,1.1-2.2
			c0.7-0.5,1.7-0.8,3-0.8c0.3,0,0.7,0,1,0c0.3,0,0.7,0.1,0.9,0.1l-0.1,1.5c-0.3-0.1-0.6-0.2-0.9-0.2c-0.4-0.1-0.7-0.1-1-0.1
			c-0.7,0-1.2,0.1-1.6,0.4c-0.3,0.3-0.5,0.6-0.5,1.1c0,0.5,0.8,1.1,2.4,1.7c1.6,0.6,2.4,1.4,2.4,2.6c0,1-0.4,1.8-1.2,2.4
			C1218.7,151,1217.7,151.3,1216.5,151.3"/>
		<polygon class="st0" points="1223.4,151.1 1223.4,141.1 1229.1,141.1 1229.1,142.4 1225.2,142.4 1225.2,145.3 1228.9,145.3 
			1228.9,146.6 1225.2,146.6 1225.2,149.7 1229.1,149.7 1229.1,151.1 		"/>
		<path class="st0" d="M1236.1,142.4c-0.9,0-1.6,0.3-2.2,0.9c-0.6,0.6-0.9,1.5-0.9,2.7c0,1.1,0.2,2,0.7,2.7c0.5,0.7,1.2,1,2.3,1
			c0.9,0,1.7-0.3,2.3-0.9c0.6-0.6,0.9-1.5,0.9-2.7c0-1.2-0.3-2.1-0.8-2.8C1237.8,142.7,1237,142.4,1236.1,142.4 M1235.9,151.3
			c-1.6,0-2.8-0.5-3.6-1.4c-0.8-0.9-1.2-2.2-1.2-3.7c0-1.6,0.5-2.9,1.5-3.8c1-1,2.2-1.4,3.6-1.4c1.5,0,2.7,0.4,3.6,1.3
			c0.9,0.9,1.3,2.1,1.3,3.8c0,1.6-0.5,2.9-1.5,3.9C1238.6,150.8,1237.4,151.3,1235.9,151.3"/>
		<path class="st0" d="M1197.9,165.8l-0.8-5.6l-0.3-2.4c-0.1,0.3-0.2,0.6-0.2,0.8c-0.1,0.3-0.2,0.6-0.3,1l-2.1,6.2h-1.9l-1.9-5.8
			c-0.1-0.4-0.3-0.8-0.4-1.2c-0.1-0.4-0.2-0.8-0.3-1.1c0,0.4,0,0.7-0.1,1.2c-0.1,0.4-0.1,0.9-0.2,1.3l-0.7,5.5h-1.8l1.5-10.1h2.2
			l2.1,6.1c0.1,0.4,0.2,0.7,0.3,1c0.1,0.3,0.2,0.6,0.2,0.9c0.1-0.4,0.2-0.7,0.2-0.9c0-0.2,0.2-0.5,0.3-1l2.1-6.2l2.3,0l1.5,10.1
			H1197.9z"/>
		<polygon class="st0" points="1202.8,165.8 1202.8,155.7 1208.5,155.7 1208.5,157.1 1204.6,157.1 1204.6,160 1208.3,160 
			1208.3,161.3 1204.6,161.3 1204.6,164.4 1208.5,164.4 1208.5,165.8 		"/>
		<path class="st0" d="M1221.9,165.8l-0.8-5.6l-0.3-2.4c-0.1,0.3-0.2,0.6-0.2,0.8c-0.1,0.3-0.2,0.6-0.3,1l-2.1,6.2h-1.9l-1.9-5.8
			c-0.1-0.4-0.3-0.8-0.4-1.2c-0.1-0.4-0.2-0.8-0.3-1.1c0,0.4,0,0.7-0.1,1.2c-0.1,0.4-0.1,0.9-0.2,1.3l-0.7,5.5h-1.8l1.5-10.1h2.2
			l2.1,6.1c0.1,0.4,0.2,0.7,0.3,1c0.1,0.3,0.2,0.6,0.2,0.9c0.1-0.4,0.2-0.7,0.2-0.9c0-0.2,0.2-0.5,0.3-1l2.1-6.2l2.3,0l1.5,10.1
			H1221.9z"/>
		<path class="st0" d="M1230.8,157.1c-0.9,0-1.6,0.3-2.2,0.9c-0.6,0.6-0.9,1.5-0.9,2.7c0,1.1,0.2,2,0.7,2.7c0.5,0.7,1.3,1,2.3,1
			c0.9,0,1.7-0.3,2.3-0.9c0.6-0.6,0.9-1.5,0.9-2.7c0-1.2-0.3-2.1-0.8-2.8C1232.5,157.4,1231.8,157.1,1230.8,157.1 M1230.6,166
			c-1.6,0-2.8-0.5-3.6-1.4c-0.8-0.9-1.2-2.2-1.2-3.7c0-1.6,0.5-2.9,1.5-3.8c1-1,2.2-1.4,3.6-1.4c1.5,0,2.7,0.4,3.6,1.3
			c0.9,0.9,1.3,2.1,1.3,3.8c0,1.6-0.5,2.9-1.5,3.9C1233.3,165.5,1232.1,166,1230.6,166"/>
		<path class="st0" d="M1241.1,157.1c-0.4,0-0.7,0-1,0.1v3.1l1.1,0c0.6,0,1.1-0.2,1.5-0.5c0.4-0.3,0.5-0.7,0.5-1.2
			C1243.1,157.6,1242.4,157.1,1241.1,157.1 M1243.4,165.8l-3.2-4.3h-0.1v4.3h-1.8v-10.1c0.6,0,1.1,0,1.6,0c0.5,0,1,0,1.4,0
			c1.2,0,2.1,0.2,2.7,0.7c0.6,0.5,1,1.1,1,2c0,0.8-0.3,1.5-0.8,2c-0.6,0.5-1.3,0.8-2.2,0.9l0.9,1.1l2.7,3.5H1243.4z"/>
		<rect x="1248" y="155.7" class="st0" width="1.8" height="10.1"/>
		<path class="st0" d="M1257.2,159.3l-0.5-1.7c-0.1,0.5-0.3,1.1-0.5,1.7l-1.2,3.2h3.5L1257.2,159.3z M1259.6,165.8l-0.8-2.1h-4.5
			l-0.8,2.1h-1.8l3.9-10.1h2l3.9,10.1H1259.6z"/>
		<path class="st0" d="M1191.4,177v3.5h-1.8v-3.4l-3.5-6.6l1.9,0l1.6,3.2c0.3,0.5,0.6,1.2,0.8,1.8c0.3-0.6,0.6-1.3,1-2l1.6-3l1.8,0
			L1191.4,177z"/>
		<polygon class="st0" points="1204,171.9 1204,180.5 1202.2,180.5 1202.2,171.9 1199.3,171.9 1199.3,170.4 1206.9,170.4 
			1206.9,171.9 		"/>
		<path class="st0" d="M1212.9,171.8c-0.9,0-1.6,0.3-2.2,0.9c-0.6,0.6-0.9,1.5-0.9,2.7c0,1.1,0.2,2,0.7,2.7c0.5,0.7,1.3,1,2.3,1
			c0.9,0,1.7-0.3,2.3-0.9c0.6-0.6,0.9-1.5,0.9-2.7c0-1.2-0.3-2.1-0.8-2.8C1214.7,172.1,1213.9,171.8,1212.9,171.8 M1212.8,180.7
			c-1.6,0-2.8-0.5-3.6-1.4c-0.8-0.9-1.2-2.2-1.2-3.7c0-1.6,0.5-2.9,1.5-3.8c1-1,2.2-1.4,3.6-1.4c1.5,0,2.7,0.4,3.6,1.3
			c0.9,0.9,1.3,2.1,1.3,3.8c0,1.6-0.5,2.9-1.5,3.9C1215.5,180.2,1214.2,180.7,1212.8,180.7"/>
		<polygon class="st0" points="1220.4,180.5 1220.4,170.4 1222.2,170.4 1222.2,179 1225.8,179 1225.8,180.5 		"/>
		<polygon class="st0" points="1227.9,180.5 1227.9,170.4 1233.6,170.4 1233.6,171.8 1229.7,171.8 1229.7,174.7 1233.4,174.7 
			1233.4,176 1229.7,176 1229.7,179.1 1233.6,179.1 1233.6,180.5 		"/>
		<path class="st0" d="M1239.3,171.7c-0.4,0-0.7,0-1,0.1v3.1l1.1,0c0.6,0,1.1-0.2,1.5-0.5c0.4-0.3,0.5-0.7,0.5-1.3
			C1241.4,172.3,1240.7,171.7,1239.3,171.7 M1241.6,180.5l-3.2-4.3h-0.1v4.3h-1.8v-10.1c0.6,0,1.1,0,1.6,0c0.5,0,1,0,1.4,0
			c1.2,0,2.1,0.2,2.7,0.7c0.6,0.5,1,1.1,1,2c0,0.8-0.3,1.5-0.8,2c-0.6,0.5-1.3,0.8-2.2,0.9l0.9,1.1l2.7,3.5L1241.6,180.5z"/>
		<path class="st0" d="M1250.1,173.9l-0.5-1.7c-0.1,0.5-0.3,1.1-0.5,1.7l-1.2,3.2h3.6L1250.1,173.9z M1252.6,180.5l-0.8-2.1h-4.5
			l-0.8,2.1h-1.8l3.9-10.1h2l3.9,10.1H1252.6z"/>
		<path class="st0" d="M1263.2,180.5l-3.8-5.9c-0.4-0.6-0.8-1.3-1.1-2v0.2c0,0.4,0,0.8,0,1.2c0,0.3,0,0.7,0,1v5.5h-1.7v-10.1h2.3
			l3.7,5.8c0.4,0.6,0.8,1.3,1.2,2c0-0.7-0.1-1.7-0.1-3.2v-4.6h1.7v10.1H1263.2z"/>
		<path class="st0" d="M1273,180.6c-1.6,0-2.8-0.4-3.7-1.3c-0.8-0.9-1.3-2.1-1.3-3.6c0-1.5,0.4-2.8,1.3-3.9c0.9-1,2.2-1.5,4-1.5
			c0.8,0,1.5,0.1,2.2,0.3l-0.2,1.6c-0.8-0.2-1.5-0.4-2.2-0.4c-1,0-1.9,0.3-2.4,1c-0.6,0.7-0.9,1.6-0.9,2.7c0,1.2,0.3,2,0.9,2.7
			c0.6,0.6,1.4,0.9,2.5,0.9c0.4,0,0.8,0,1.2-0.1c0.4-0.1,0.8-0.2,1.1-0.3l0.2,1.5C1274.9,180.5,1274,180.6,1273,180.6"/>
		<rect x="1278.3" y="170.4" class="st0" width="1.8" height="10.1"/>
		<path class="st0" d="M1287.5,173.9l-0.5-1.7c-0.1,0.5-0.3,1.1-0.5,1.7l-1.3,3.2h3.6L1287.5,173.9z M1290,180.5l-0.8-2.1h-4.5
			l-0.8,2.1h-1.8l3.9-10.1h2l3.9,10.1H1290z"/>
	</g>
	<g>
		
			<image style="overflow:visible;opacity:0.75;" width="147" height="662" xlink:href="8AF3810F.png"  transform="matrix(0.24 0 0 0.24 1006.72 78.96)">
		</image>
		<g>
			<line class="st3" x1="1018.6" y1="90.8" x2="1018.6" y2="214.5"/>
		</g>
	</g>
</g>
</svg>
