<?xml version="1.0" encoding="utf-8"?>
<!-- Generator: Adobe Illustrator 25.4.1, SVG Export Plug-In . SVG Version: 6.00 Build 0)  -->
<svg version="1.1" id="Capa_1" xmlns="http://www.w3.org/2000/svg" xmlns:xlink="http://www.w3.org/1999/xlink" x="0px" y="0px"
	 viewBox="0 0 2498 1406" style="enable-background:new 0 0 2498 1406;" xml:space="preserve">
<style type="text/css">
	.st0{fill:none;}
</style>
<image style="overflow:visible;" width="2498" height="1406" xlink:href="RenderBackground2.jpg" >
</image>
<polygon class="st0" points="495.98,977.38 635.89,957.98 635.89,778.23 495.98,787.43 "/>
<polygon class="st0" points="771.72,776.23 920.83,773.13 920.83,935.51 771.72,947.77 "/>
<rect x="1068.91" y="687.34" class="st0" width="354.38" height="243.06"/>
<polygon class="st0" points="1564.23,773.13 1706.19,778.23 1706.19,941.64 1564.23,933.47 "/>
<polygon class="st0" points="1848.15,782.32 1982.96,787.43 1982.96,974.32 1848.15,955.94 "/>
<rect x="1048.49" y="344.19" class="st0" width="331.91" height="229.79"/>
<polygon class="st0" points="1074.02,998.83 1074.02,1318.49 945.34,1292.96 945.34,990.66 "/>
<polygon class="st0" points="1788.91,423.34 1788.91,667.68 2135.89,663.85 2135.89,385.04 "/>
</svg>
